<svg width="27" height="28" viewBox="0 0 27 28" fill="none" xmlns="http://www.w3.org/2000/svg">
<circle cx="13" cy="14" r="10" fill="white"/>
<path d="M13.5 2.625C11.3306 2.625 9.2099 3.29213 7.40609 4.54203C5.60229 5.79193 4.1964 7.56847 3.3662 9.64698C2.536 11.7255 2.31878 14.0126 2.74202 16.2192C3.16525 18.4257 4.20992 20.4525 5.74393 22.0433C7.27793 23.6342 9.23238 24.7175 11.3601 25.1564C13.4878 25.5953 15.6933 25.3701 17.6976 24.5091C19.7018 23.6482 21.4149 22.1902 22.6202 20.3196C23.8254 18.449 24.4688 16.2498 24.4688 14C24.4657 10.9841 23.3091 8.09271 21.2527 5.96018C19.1963 3.82764 16.4082 2.62818 13.5 2.625ZM13.5 23.625C11.6643 23.625 9.86991 23.0605 8.34362 22.0029C6.81732 20.9453 5.62772 19.4421 4.92525 17.6833C4.22277 15.9246 4.03897 13.9893 4.39709 12.1223C4.75521 10.2552 5.63916 8.54018 6.93717 7.1941C8.23518 5.84802 9.88894 4.93132 11.6893 4.55994C13.4897 4.18856 15.3559 4.37917 17.0518 5.10766C18.7477 5.83615 20.1972 7.06981 21.2171 8.65264C22.2369 10.2355 22.7813 12.0964 22.7813 14C22.7785 16.5518 21.7997 18.9983 20.0598 20.8027C18.3198 22.6071 15.9607 23.6221 13.5 23.625ZM19.4063 14C19.4063 15.2114 19.0599 16.3956 18.4109 17.4029C17.7619 18.4101 16.8395 19.1952 15.7602 19.6588C14.681 20.1223 13.4935 20.2436 12.3478 20.0073C11.2021 19.771 10.1497 19.1876 9.32366 18.331C8.49765 17.4744 7.93514 16.3831 7.70724 15.1949C7.47935 14.0068 7.59631 12.7753 8.04334 11.6561C8.49037 10.5369 9.24739 9.58027 10.2187 8.90725C11.1899 8.23422 12.3319 7.875 13.5 7.875C15.0659 7.87674 16.5672 8.52261 17.6745 9.67089C18.7818 10.8192 19.4046 12.3761 19.4063 14Z" fill="#0267B2"/>
</svg>
