<svg width="22" height="23" viewBox="0 0 22 23" fill="none" xmlns="http://www.w3.org/2000/svg">
<path d="M19.9375 5.02246V8.45996C19.9375 8.73347 19.8288 8.99577 19.6355 9.18917C19.4421 9.38256 19.1798 9.49121 18.9062 9.49121C18.6327 9.49121 18.3704 9.38256 18.177 9.18917C17.9837 8.99577 17.875 8.73347 17.875 8.45996V6.05371H15.4688C15.1952 6.05371 14.9329 5.94506 14.7395 5.75166C14.5462 5.55827 14.4375 5.29597 14.4375 5.02246C14.4375 4.74896 14.5462 4.48665 14.7395 4.29326C14.9329 4.09986 15.1952 3.99121 15.4688 3.99121H18.9062C19.1798 3.99121 19.4421 4.09986 19.6355 4.29326C19.8288 4.48665 19.9375 4.74896 19.9375 5.02246ZM6.53125 17.0537H4.125V14.6475C4.125 14.374 4.01635 14.1117 3.82295 13.9183C3.62956 13.7249 3.36725 13.6162 3.09375 13.6162C2.82025 13.6162 2.55794 13.7249 2.36455 13.9183C2.17115 14.1117 2.0625 14.374 2.0625 14.6475V18.085C2.0625 18.3585 2.17115 18.6208 2.36455 18.8142C2.55794 19.0076 2.82025 19.1162 3.09375 19.1162H6.53125C6.80475 19.1162 7.06706 19.0076 7.26045 18.8142C7.45385 18.6208 7.5625 18.3585 7.5625 18.085C7.5625 17.8115 7.45385 17.5492 7.26045 17.3558C7.06706 17.1624 6.80475 17.0537 6.53125 17.0537ZM18.9062 13.6162C18.6327 13.6162 18.3704 13.7249 18.177 13.9183C17.9837 14.1117 17.875 14.374 17.875 14.6475V17.0537H15.4688C15.1952 17.0537 14.9329 17.1624 14.7395 17.3558C14.5462 17.5492 14.4375 17.8115 14.4375 18.085C14.4375 18.3585 14.5462 18.6208 14.7395 18.8142C14.9329 19.0076 15.1952 19.1162 15.4688 19.1162H18.9062C19.1798 19.1162 19.4421 19.0076 19.6355 18.8142C19.8288 18.6208 19.9375 18.3585 19.9375 18.085V14.6475C19.9375 14.374 19.8288 14.1117 19.6355 13.9183C19.4421 13.7249 19.1798 13.6162 18.9062 13.6162ZM3.09375 9.49121C3.36725 9.49121 3.62956 9.38256 3.82295 9.18917C4.01635 8.99577 4.125 8.73347 4.125 8.45996V6.05371H6.53125C6.80475 6.05371 7.06706 5.94506 7.26045 5.75166C7.45385 5.55827 7.5625 5.29597 7.5625 5.02246C7.5625 4.74896 7.45385 4.48665 7.26045 4.29326C7.06706 4.09986 6.80475 3.99121 6.53125 3.99121H3.09375C2.82025 3.99121 2.55794 4.09986 2.36455 4.29326C2.17115 4.48665 2.0625 4.74896 2.0625 5.02246V8.45996C2.0625 8.73347 2.17115 8.99577 2.36455 9.18917C2.55794 9.38256 2.82025 9.49121 3.09375 9.49121ZM7.5625 7.42871C7.289 7.42871 7.02669 7.53736 6.8333 7.73076C6.6399 7.92415 6.53125 8.18646 6.53125 8.45996V14.6475C6.53125 14.921 6.6399 15.1833 6.8333 15.3767C7.02669 15.5701 7.289 15.6787 7.5625 15.6787C7.836 15.6787 8.09831 15.5701 8.2917 15.3767C8.4851 15.1833 8.59375 14.921 8.59375 14.6475V8.45996C8.59375 8.18646 8.4851 7.92415 8.2917 7.73076C8.09831 7.53736 7.836 7.42871 7.5625 7.42871ZM15.4688 14.6475V8.45996C15.4688 8.18646 15.3601 7.92415 15.1667 7.73076C14.9733 7.53736 14.711 7.42871 14.4375 7.42871C14.164 7.42871 13.9017 7.53736 13.7083 7.73076C13.5149 7.92415 13.4062 8.18646 13.4062 8.45996V14.6475C13.4062 14.921 13.5149 15.1833 13.7083 15.3767C13.9017 15.5701 14.164 15.6787 14.4375 15.6787C14.711 15.6787 14.9733 15.5701 15.1667 15.3767C15.3601 15.1833 15.4688 14.921 15.4688 14.6475ZM11 7.42871C10.7265 7.42871 10.4642 7.53736 10.2708 7.73076C10.0774 7.92415 9.96875 8.18646 9.96875 8.45996V14.6475C9.96875 14.921 10.0774 15.1833 10.2708 15.3767C10.4642 15.5701 10.7265 15.6787 11 15.6787C11.2735 15.6787 11.5358 15.5701 11.7292 15.3767C11.9226 15.1833 12.0312 14.921 12.0312 14.6475V8.45996C12.0312 8.18646 11.9226 7.92415 11.7292 7.73076C11.5358 7.53736 11.2735 7.42871 11 7.42871Z" fill="black"/>
</svg>
